<svg xmlns="http://www.w3.org/2000/svg" width="960" height="640" viewBox="0 0 960 640" role="img" aria-labelledby="title"><title id="title">JWT security</title><defs><linearGradient id="g" x1="0" y1="0" x2="1" y2="1"><stop stop-color="#101827"/><stop offset="1" stop-color="#050816"/></linearGradient><filter id="shadow" x="-20%" y="-20%" width="140%" height="140%"><feDropShadow dx="0" dy="22" stdDeviation="22" flood-color="#000" flood-opacity=".35"/></filter></defs><rect width="960" height="640" rx="34" fill="url(#g)"/><g opacity=".22" stroke="#fff"><path d="M0 120h960M0 240h960M0 360h960M0 480h960M160 0v640M320 0v640M480 0v640M640 0v640M800 0v640"/></g><circle cx="790" cy="110" r="140" fill="#ef4444" opacity=".13"/><rect x="92" y="86" width="776" height="468" rx="28" fill="#0b1220" stroke="#263247" filter="url(#shadow)"/><rect x="92" y="86" width="776" height="64" rx="28" fill="#111b2b"/><circle cx="132" cy="119" r="9" fill="#ef4444"/><circle cx="162" cy="119" r="9" fill="#f59e0b"/><circle cx="192" cy="119" r="9" fill="#22c55e"/><text x="234" y="126" fill="#dbeafe" font-family="Inter,Arial" font-size="18" font-weight="700">JWT security</text><rect x="134" y="198" width="210" height="246" rx="20" fill="#101827" stroke="#2b3950"/><rect x="386" y="198" width="210" height="246" rx="20" fill="#101827" stroke="#ef4444"/><rect x="638" y="198" width="188" height="246" rx="20" fill="#101827" stroke="#2b3950"/><text x="166" y="250" fill="#f8fafc" font-family="Inter,Arial" font-size="28" font-weight="800">Login</text><text x="418" y="250" fill="#f8fafc" font-family="Inter,Arial" font-size="28" font-weight="800">Roles</text><text x="670" y="250" fill="#f8fafc" font-family="Inter,Arial" font-size="28" font-weight="800">Token</text><path d="M210 360h88M462 330h88M704 380h78" stroke="#ef4444" stroke-width="12" stroke-linecap="round"/><path d="M210 400h54M462 370h56M704 420h46" stroke="#64748b" stroke-width="10" stroke-linecap="round"/><path d="M344 318h42M596 318h42" stroke="#ef4444" stroke-width="4"/><path d="M374 302l16 16-16 16M626 302l16 16-16 16" fill="none" stroke="#ef4444" stroke-width="4" stroke-linecap="round" stroke-linejoin="round"/><rect x="134" y="486" width="692" height="22" rx="11" fill="#172033"/><rect x="134" y="486" width="436" height="22" rx="11" fill="#ef4444" opacity=".88"/></svg>