<svg xmlns="http://www.w3.org/2000/svg" viewBox="0 0 560 320"><defs><radialGradient id="g" cx="20%" cy="10%"><stop offset="0" stop-color="#38BDF8" stop-opacity=".22"/><stop offset="1" stop-color="#0B1120" stop-opacity="0"/></radialGradient><pattern id="grid" width="24" height="24" patternUnits="userSpaceOnUse"><path d="M24 0H0V24" fill="none" stroke="rgba(255,255,255,.05)"/></pattern></defs><rect width="560" height="320" rx="24" fill="#0B1120"/><rect width="560" height="320" fill="url(#grid)"/><rect width="560" height="320" fill="url(#g)"/><text x="30" y="44" fill="#F8FAFC" font-size="24" font-weight="700" font-family="Inter,Arial">Furama Modules</text><text x="30" y="70" fill="#CBD5E1" font-size="12" font-family="Consolas,monospace">database -> servlet/JSP -> Spring Boot</text><path d="M173 129 H210 M348 129 H385 M104 153 V201 M279 153 V201 M454 153 V201" stroke="#38BDF8" stroke-opacity=".5"/><rect x="35" y="105" width="138" height="48" rx="12" fill="#111827" stroke="rgba(255,255,255,.12)"/><text x="104" y="135" text-anchor="middle" fill="#CBD5E1" font-size="13" font-family="Consolas,monospace">MySQL</text><rect x="210" y="105" width="138" height="48" rx="12" fill="#111827" stroke="rgba(255,255,255,.12)"/><text x="279" y="135" text-anchor="middle" fill="#CBD5E1" font-size="13" font-family="Consolas,monospace">JDBC</text><rect x="385" y="105" width="138" height="48" rx="12" fill="#111827" stroke="rgba(255,255,255,.12)"/><text x="454" y="135" text-anchor="middle" fill="#CBD5E1" font-size="13" font-family="Consolas,monospace">Servlet</text><rect x="35" y="201" width="138" height="48" rx="12" fill="#111827" stroke="rgba(255,255,255,.12)"/><text x="104" y="231" text-anchor="middle" fill="#CBD5E1" font-size="13" font-family="Consolas,monospace">JSP</text><rect x="210" y="201" width="138" height="48" rx="12" fill="#111827" stroke="rgba(255,255,255,.12)"/><text x="279" y="231" text-anchor="middle" fill="#CBD5E1" font-size="13" font-family="Consolas,monospace">Spring</text><rect x="385" y="201" width="138" height="48" rx="12" fill="#111827" stroke="rgba(255,255,255,.12)"/><text x="454" y="231" text-anchor="middle" fill="#CBD5E1" font-size="13" font-family="Consolas,monospace">Angular</text><circle cx="510" cy="44" r="7" fill="#38BDF8"/><circle cx="530" cy="44" r="7" fill="#22C55E"/></svg>