<svg xmlns="http://www.w3.org/2000/svg" viewBox="0 0 112 112" role="img" aria-label="Portfolio QR code"><rect width="112" height="112" rx="12" fill="#F8FAFC"/><g fill="#0B1120"><rect x="10" y="10" width="28" height="28" rx="3"/><rect x="16" y="16" width="16" height="16" rx="2" fill="#F8FAFC"/><rect x="21" y="21" width="6" height="6"/><rect x="74" y="10" width="28" height="28" rx="3"/><rect x="80" y="16" width="16" height="16" rx="2" fill="#F8FAFC"/><rect x="85" y="21" width="6" height="6"/><rect x="10" y="74" width="28" height="28" rx="3"/><rect x="16" y="80" width="16" height="16" rx="2" fill="#F8FAFC"/><rect x="21" y="85" width="6" height="6"/><rect x="78" y="44" width="5" height="5" rx="1"/><rect x="95" y="73" width="3" height="3" rx="1"/><rect x="88" y="44" width="3" height="3" rx="1"/><rect x="81" y="73" width="3" height="3" rx="1"/><rect x="74" y="44" width="3" height="3" rx="1"/><rect x="91" y="73" width="4" height="4" rx="1"/><rect x="84" y="44" width="4" height="4" rx="1"/><rect x="101" y="73" width="5" height="5" rx="1"/><rect x="77" y="73" width="4" height="4" rx="1"/><rect x="87" y="73" width="5" height="5" rx="1"/><rect x="80" y="44" width="5" height="5" rx="1"/><rect x="97" y="73" width="3" height="3" rx="1"/><rect x="83" y="73" width="3" height="3" rx="1"/><rect x="100" y="44" width="4" height="4" rx="1"/><rect x="76" y="44" width="3" height="3" rx="1"/><rect x="93" y="73" width="4" height="4" rx="1"/><rect x="79" y="73" width="4" height="4" rx="1"/><rect x="96" y="44" width="5" height="5" rx="1"/><rect x="89" y="73" width="5" height="5" rx="1"/><rect x="99" y="73" width="3" height="3" rx="1"/><rect x="75" y="73" width="5" height="5" rx="1"/><rect x="92" y="44" width="3" height="3" rx="1"/><rect x="85" y="73" width="3" height="3" rx="1"/><rect x="95" y="73" width="4" height="4" rx="1"/><rect x="88" y="44" width="4" height="4" rx="1"/><rect x="81" y="73" width="4" height="4" rx="1"/><rect x="98" y="44" width="5" height="5" rx="1"/><rect x="91" y="73" width="5" height="5" rx="1"/><rect x="84" y="44" width="5" height="5" rx="1"/><rect x="77" y="73" width="5" height="5" rx="1"/><rect x="94" y="44" width="3" height="3" rx="1"/><rect x="87" y="73" width="3" height="3" rx="1"/><rect x="80" y="44" width="3" height="3" rx="1"/><rect x="90" y="44" width="4" height="4" rx="1"/><rect x="83" y="73" width="4" height="4" rx="1"/><rect x="100" y="44" width="5" height="5" rx="1"/><rect x="76" y="44" width="4" height="4" rx="1"/><rect x="86" y="44" width="5" height="5" rx="1"/><rect x="79" y="73" width="5" height="5" rx="1"/><rect x="96" y="44" width="3" height="3" rx="1"/><rect x="82" y="44" width="3" height="3" rx="1"/><rect x="99" y="73" width="4" height="4" rx="1"/><rect x="75" y="73" width="3" height="3" rx="1"/><rect x="92" y="44" width="4" height="4" rx="1"/><rect x="78" y="44" width="4" height="4" rx="1"/><rect x="95" y="73" width="5" height="5" rx="1"/><rect x="45" y="14" width="5" height="5"/><rect x="55" y="14" width="9" height="5"/><rect x="46" y="25" width="15" height="5"/><rect x="44" y="76" width="5" height="20"/><rect x="54" y="83" width="9" height="5"/><rect x="66" y="72" width="5" height="30"/><rect x="80" y="50" width="21" height="5"/><rect x="91" y="61" width="10" height="5"/><rect x="76" y="83" width="5" height="18"/><rect x="91" y="88" width="11" height="11"/></g><title>http://127.0.0.1:4291/</title></svg>